<svg xmlns="http://www.w3.org/2000/svg" width="1254" height="1254" viewBox="0 0 1254 1254">
  <defs>
    <linearGradient id="og" x1="0" y1="160" x2="0" y2="680" gradientUnits="userSpaceOnUse">
      <stop offset="0%" stop-color="#FF9A2F"/>
      <stop offset="100%" stop-color="#FF5A12"/>
    </linearGradient>
    <filter id="ds" x="-20%" y="-20%" width="140%" height="140%">
      <feDropShadow dx="0" dy="14" stdDeviation="18" flood-color="#000000" flood-opacity="0.10"/>
    </filter>
  </defs>
  <rect x="30" y="30" width="1194" height="1194" rx="170" fill="#FFFFFF" filter="url(#ds)"/>
  <path d="M 585.0 666.5 L 572.0 661.5 L 557.5 648.0 L 413.5 489.0 L 387.5 443.0 L 377.5 397.0 L 378.5 361.0 L 386.5 324.0 L 402.5 286.0 L 421.5 256.0 L 478.0 199.5 L 508.0 180.5 L 546.0 164.5 L 559.0 167.5 L 564.5 183.0 L 532.5 355.0 L 531.5 412.0 L 544.0 427.5 L 559.0 428.5 L 606.0 375.5 L 614.5 377.0 L 613.5 636.0 L 604.5 638.0 L 604.5 650.0 L 595.5 653.0 L 588.5 664.0 L 593.0 665.5 L 585.0 666.5 Z" fill="url(#og)"/>
<path d="M 670.0 666.5 L 659.0 665.5 L 655.0 653.5 L 647.0 662.5 L 642.5 658.0 L 647.5 644.0 L 653.5 640.0 L 649.0 632.5 L 641.0 639.5 L 638.5 632.0 L 638.5 377.0 L 645.0 374.5 L 694.0 428.5 L 709.0 427.5 L 720.5 414.0 L 723.5 379.0 L 718.5 340.0 L 688.5 182.0 L 693.0 168.5 L 707.0 164.5 L 768.0 194.5 L 798.0 218.5 L 832.5 257.0 L 865.5 320.0 L 874.5 360.0 L 875.5 397.0 L 865.5 443.0 L 840.5 488.0 L 683.0 660.5 L 678.0 661.5 L 673.0 650.5 L 663.5 651.0 L 674.5 663.0 L 670.0 666.5 Z" fill="url(#og)"/>
<path d="M 742.0 658.5 L 735.0 658.5 L 736.5 653.0 L 727.5 646.0 L 732.5 638.0 L 861.5 500.0 L 903.5 443.0 L 910.0 440.5 L 911.5 470.0 L 902.5 515.0 L 890.5 547.0 L 868.5 584.0 L 839.0 615.5 L 809.0 636.5 L 762.0 655.5 L 753.0 657.5 L 747.0 652.5 L 742.0 658.5 Z" fill="url(#og)"/>
<path d="M 535.0 659.5 L 507.0 657.5 L 515.5 651.0 L 512.0 641.5 L 507.0 641.5 L 496.0 654.5 L 460.0 644.5 L 427.0 625.5 L 392.5 594.0 L 368.5 559.0 L 349.5 512.0 L 340.5 461.0 L 343.0 440.5 L 350.5 444.0 L 407.5 518.0 L 526.5 644.0 L 522.5 653.0 L 532.0 650.5 L 535.0 659.5 Z" fill="url(#og)"/>
  <g transform="translate(0, 35)">
  <path d="M556.118 724.23V738.3820000000001H578.444V830.858H592.718V770.956C599.9159999999999 776.812 607.114 783.034 611.14 787.426L621.144 776.202C614.8 770.102 601.99 760.708 592.718 753.754V738.3820000000001H622.364V724.23ZM544.894 792.794C545.992 796.454 547.212 800.48 548.188 804.628L542.21 805.482V784.864H559.046V739.114H542.332V717.032H529.156V739.114H512.686V790.598H524.276V784.864H529.156V807.434C521.104 808.532 513.662 809.508 507.684 810.24L509.636 824.148L550.75 817.072C551.238 819.756 551.482 822.318 551.726 824.514L563.926 820.976C562.95 812.436 560.022 799.504 556.24 789.5ZM524.276 750.704H530.376V773.274H524.276ZM541.112 750.704H547.212V773.274H541.112Z" fill="#0C1B2D"/>
  <path d="M635.052 764.002V790.354H648.472V776.568H726.796V790.354H740.826V764.002ZM680.192 716.178V725.694H633.954V738.626H680.192V746.068H644.69V758.268H731.676V746.068H695.3199999999999V738.626H742.412V725.694H695.3199999999999V716.178ZM660.9159999999999 782.424V796.454C660.9159999999999 805.97 657.622 813.778 629.44 819.024C631.758 821.708 635.54 828.54 636.516 831.956C668.358 825.368 675.434 811.704 675.434 797.064V795.6H701.054V812.924C701.054 826.222 704.7139999999999 830.126 717.158 830.126C719.72 830.126 727.7719999999999 830.126 730.456 830.126C740.704 830.126 744.486 825.734 745.95 809.874C742.046 808.898 736.068 806.702 733.14 804.384C732.652 815.242 732.042 817.072 728.992 817.072C727.162 817.072 721.062 817.072 719.476 817.072C716.06 817.072 715.45 816.584 715.45 812.68V782.424Z" fill="#0C1B2D"/>
  </g>
  <g stroke="#4B5768" stroke-width="3" paint-order="stroke fill" stroke-linejoin="round">
  <path d="M502.46630859375 956.900390625V964.1806640625Q498.97998046875 960.93359375 495.0322265625 959.3271484375Q491.08447265625 957.720703125 486.64111328125 957.720703125Q477.89111328125 957.720703125 473.24267578125 963.06982421875Q468.59423828125 968.4189453125 468.59423828125 978.5361328125Q468.59423828125 988.619140625 473.24267578125 993.96826171875Q477.89111328125 999.3173828125 486.64111328125 999.3173828125Q491.08447265625 999.3173828125 495.0322265625 997.7109375Q498.97998046875 996.1044921875 502.46630859375 992.857421875V1000.0693359375Q498.84326171875 1002.5302734375 494.79296875 1003.7607421875Q490.74267578125 1004.9912109375 486.23095703125 1004.9912109375Q474.64404296875 1004.9912109375 467.97900390625 997.89892578125Q461.31396484375 990.806640625 461.31396484375 978.5361328125Q461.31396484375 966.2314453125 467.97900390625 959.13916015625Q474.64404296875 952.046875 486.23095703125 952.046875Q490.81103515625 952.046875 494.861328125 953.26025390625Q498.91162109375 954.4736328125 502.46630859375 956.900390625Z" fill="#4B5768"/>
<path d="M512.85693359375 950.81640625H519.14599609375V1004.0H512.85693359375Z" fill="#4B5768"/>
<path d="M549.70263671875 984.7568359375Q542.08056640625 984.7568359375 539.14111328125 986.5Q536.20166015625 988.2431640625 536.20166015625 992.447265625Q536.20166015625 995.796875 538.40625 997.76220703125Q540.61083984375 999.7275390625 544.40478515625 999.7275390625Q549.63427734375 999.7275390625 552.7958984375 996.01904296875Q555.95751953125 992.310546875 555.95751953125 986.158203125V984.7568359375ZM562.24658203125 982.1591796875V1004.0H555.95751953125V998.189453125Q553.80419921875 1001.67578125 550.59130859375 1003.33349609375Q547.37841796875 1004.9912109375 542.72998046875 1004.9912109375Q536.85107421875 1004.9912109375 533.3818359375 1001.69287109375Q529.91259765625 998.39453125 529.91259765625 992.857421875Q529.91259765625 986.3974609375 534.236328125 983.1162109375Q538.56005859375 979.8349609375 547.13916015625 979.8349609375H555.95751953125V979.2197265625Q555.95751953125 974.87890625 553.103515625 972.50341796875Q550.24951171875 970.1279296875 545.08837890625 970.1279296875Q541.80712890625 970.1279296875 538.69677734375 970.9140625Q535.58642578125 971.7001953125 532.71533203125 973.2724609375V967.4619140625Q536.16748046875 966.12890625 539.41455078125 965.46240234375Q542.66162109375 964.7958984375 545.73779296875 964.7958984375Q554.04345703125 964.7958984375 558.14501953125 969.1025390625Q562.24658203125 973.4091796875 562.24658203125 982.1591796875Z" fill="#4B5768"/>
<path d="M571.54345703125 965.71875H577.83251953125L585.69384765625 995.591796875L593.52099609375 965.71875H600.93798828125L608.79931640625 995.591796875L616.62646484375 965.71875H622.91552734375L612.90087890625 1004.0H605.48388671875L597.24658203125 972.623046875L588.97509765625 1004.0H581.55810546875Z" fill="#4B5768"/>
<path d="M663.31591796875 954.64453125V961.3779296875Q659.38525390625 959.498046875 655.89892578125 958.5751953125Q652.41259765625 957.65234375 649.16552734375 957.65234375Q643.52587890625 957.65234375 640.466796875 959.83984375Q637.40771484375 962.02734375 637.40771484375 966.060546875Q637.40771484375 969.4443359375 639.44140625 971.17041015625Q641.47509765625 972.896484375 647.14892578125 973.9560546875L651.31884765625 974.810546875Q659.04345703125 976.2802734375 662.7177734375 979.98876953125Q666.39208984375 983.697265625 666.39208984375 989.91796875Q666.39208984375 997.3349609375 661.4189453125 1001.1630859375Q656.44580078125 1004.9912109375 646.84130859375 1004.9912109375Q643.21826171875 1004.9912109375 639.1337890625 1004.1708984375Q635.04931640625 1003.3505859375 630.67431640625 1001.744140625V994.634765625Q634.87841796875 996.9931640625 638.91162109375 998.189453125Q642.94482421875 999.3857421875 646.84130859375 999.3857421875Q652.75439453125 999.3857421875 655.96728515625 997.0615234375Q659.18017578125 994.7373046875 659.18017578125 990.4306640625Q659.18017578125 986.6708984375 656.873046875 984.5517578125Q654.56591796875 982.4326171875 649.30224609375 981.373046875L645.09814453125 980.552734375Q637.37353515625 979.0146484375 633.92138671875 975.7333984375Q630.46923828125 972.4521484375 630.46923828125 966.607421875Q630.46923828125 959.83984375 635.2373046875 955.943359375Q640.00537109375 952.046875 648.37939453125 952.046875Q651.96826171875 952.046875 655.69384765625 952.6962890625Q659.41943359375 953.345703125 663.31591796875 954.64453125Z" fill="#4B5768"/>
<path d="M708.70654296875 980.89453125V1004.0H702.41748046875V981.099609375Q702.41748046875 975.6650390625 700.29833984375 972.96484375Q698.17919921875 970.2646484375 693.94091796875 970.2646484375Q688.84814453125 970.2646484375 685.90869140625 973.51171875Q682.96923828125 976.7587890625 682.96923828125 982.3642578125V1004.0H676.64599609375V950.81640625H682.96923828125V971.666015625Q685.22509765625 968.2138671875 688.2841796875 966.5048828125Q691.34326171875 964.7958984375 695.34228515625 964.7958984375Q701.93896484375 964.7958984375 705.32275390625 968.88037109375Q708.70654296875 972.96484375 708.70654296875 980.89453125Z" fill="#4B5768"/>
<path d="M753.99462890625 983.287109375V986.36328125H725.07861328125Q725.48876953125 992.857421875 728.9921875 996.25830078125Q732.49560546875 999.6591796875 738.75048828125 999.6591796875Q742.37353515625 999.6591796875 745.7744140625 998.7705078125Q749.17529296875 997.8818359375 752.52490234375 996.1044921875V1002.0517578125Q749.14111328125 1003.4873046875 745.58642578125 1004.2392578125Q742.03173828125 1004.9912109375 738.37451171875 1004.9912109375Q729.21435546875 1004.9912109375 723.865234375 999.6591796875Q718.51611328125 994.3271484375 718.51611328125 985.2353515625Q718.51611328125 975.8359375 723.591796875 970.31591796875Q728.66748046875 964.7958984375 737.28076171875 964.7958984375Q745.00537109375 964.7958984375 749.5 969.76904296875Q753.99462890625 974.7421875 753.99462890625 983.287109375ZM747.70556640625 981.44140625Q747.63720703125 976.2802734375 744.8173828125 973.2041015625Q741.99755859375 970.1279296875 737.34912109375 970.1279296875Q732.08544921875 970.1279296875 728.923828125 973.1015625Q725.76220703125 976.0751953125 725.28369140625 981.4755859375Z" fill="#4B5768"/>
<path d="M764.31689453125 950.81640625H770.60595703125V1004.0H764.31689453125Z" fill="#4B5768"/>
<path d="M783.76513671875 950.81640625H790.05419921875V1004.0H783.76513671875Z" fill="#4B5768"/>
  </g>
</svg>